
<global>
amp_veltrack=0
ampeg_release=0.45
</global>

<group>
group_label=PP
lpc_hicc1=42
lpc_locc1=0

<region>
hikey=B1
hivel=127
lokey=A#1
loop_end=265119
loop_mode=loop_continuous
loop_start=69869
loop_xfade=25670
lovel=0
lpc=pt1HQ+QmA8RHFO5DNWKQw/MDmEOZpm7DGQLKQsaAQMIdTVRCYajHwSV6jsHXuoXBDnD0v1aMg0KhfBjC68CbwUDlIUIsEgTC0FjoQTxw0sFHYrxB7E7pwSVldkHKUEi+
lpc_rms=-32.19
pitch_keycenter=A#1
sample=Bassoon_accent_sustain_PP_A#1.opus
tune=-2
</region>

<region>
hikey=B2
hivel=127
lokey=A#2
loop_end=255945
loop_mode=loop_continuous
loop_start=67452
loop_xfade=24782
lovel=0
lpc=k+HJQ2PIhMRlj4BE6T8mxHfKFERY7P3Dw4+kQ/bd9cIZsERCBIeMwvl6AUIu1IXC35SKQhlSk0CRDbrBtTHnwZqpokJtAkbC4aMrQq+mb8KAYDJCCntNws8yBEIgfBXA
lpc_rms=-25.37
pitch_keycenter=A#2
sample=Bassoon_accent_sustain_PP_A#2.opus
tune=-3
</region>

<region>
hikey=B3
hivel=127
lokey=A#3
loop_end=263143
loop_mode=loop_continuous
loop_start=69349
loop_xfade=25479
lovel=0
lpc=e2nqQ7HkksT3BohEogkrxFVKFUTpPuLDvmp3QxLJvsLvwZpBFbzXwVnwaUFZpBrCgc95QtZ8tkFiYGXCqk87wekkj0I7mcrC0TfgQoOpzsLMDKtCd1jpwjCJCkPt+2vC
lpc_rms=-24.10
pitch_keycenter=A#3
sample=Bassoon_accent_sustain_PP_A#3.opus
tune=-2
</region>

<region>
hikey=C#2
hivel=127
lokey=C2
loop_end=253141
loop_mode=loop_continuous
loop_start=66713
loop_xfade=24510
lovel=0
lpc=GHUoQztE2cPm4bZDCY44w7ByY0PANFnDyMTRQpRkF8IBL+FBOUe4wUgHC8HJ1knBU7JKQT0VO0KQtvjBsRuMwYr50UH5MYfB9fO9QO6npsF4+jFCDw4+wqMa/0HQPRvB
lpc_rms=-33.43
pitch_keycenter=C2
sample=Bassoon_accent_sustain_PP_C2.opus
tune=-4
</region>

<region>
hikey=C#3
hivel=127
lokey=C3
loop_end=256393
loop_mode=loop_continuous
loop_start=67570
loop_xfade=24825
lovel=0
lpc=xrBXQ4vpEMQUkw9ES96uwzUYfkPP3UDD8EENQ4xzq8J+q1JCCziKwSOmwcHXBUzB3puWQVuW8UBmt2lABR+ZwUN+LkJ9Qf/BUUyrQecA28F88pi/6PR0wfwgMUJgy5fB
lpc_rms=-29.79
pitch_keycenter=C3
sample=Bassoon_accent_sustain_PP_C3.opus
tune=-1
</region>

<region>
hikey=C#4
hivel=127
lokey=C4
loop_end=260069
loop_mode=loop_continuous
loop_start=68539
loop_xfade=25181
lovel=0
lpc=f5R1Q7orHcQ9sQlELamGwxNeSENe9BXDsK/CQpZFhsLlKolCHUFHwnzOj0BWRTPCUkpLQuNlS8AhNp3AugsjwS/IIkJvJh7CsvzmQavob8HNOYPBYmnDwW0aiEKLIvDB
lpc_rms=-28.12
sample=Bassoon_accent_sustain_PP_C4.opus
tune=-2
</region>

<region>
hikey=D#2
hivel=127
lokey=D2
loop_end=250349
loop_mode=loop_continuous
loop_start=65977
loop_xfade=24240
lovel=0
lpc=d1LqQ9OJk8TqoHREaQ70w7aQAESEW9jD/cwuQ1HO2cGu4ixCfRk9wVOnk8LX3vvB0kzTQSbj60JPwqvCzbKNwUnPmELvk0bCX1yDQWYRScJkgWxCCYeawsIWkEJWNKDB
lpc_rms=-27.63
pitch_keycenter=D2
sample=Bassoon_accent_sustain_PP_D2.opus
tune=-4
</region>

<region>
hikey=D#3
hivel=127
lokey=D3
loop_end=256423
loop_mode=loop_continuous
loop_start=67578
loop_xfade=24828
lovel=0
lpc=or/iQ7H1lcTZiZNEZ0MvxDwx7kMJvtHDtHi4Qze8PsO227FCtLs2wohjCsL2VZpBmzc5Qb0O2T9A70PCwdJMP9Iu0UJMcxnCgPDiwd2byUDvPF3BNYlSQCtayT4CbAtB
lpc_rms=-24.17
pitch_keycenter=D3
sample=Bassoon_accent_sustain_PP_D3.opus
</region>

<region>
hikey=D#4
hivel=127
lokey=D4
loop_end=264440
loop_mode=loop_continuous
loop_start=69690
loop_xfade=25604
lovel=0
lpc=3gw9QyJq98P4/d1DiCg6w7bpuEIVh6jCQct9QrCPbsGTvB7AywcZQT50CcIsEKxBmBA4wYkW0UHwhEHC7r39QQHgpEEbiyPBAXpPwUbJCkGh0K3BLPHOQNwij0FbmQ3B
lpc_rms=-28.83
pitch_keycenter=D4
sample=Bassoon_accent_sustain_PP_D4.opus
tune=+1
</region>

<region>
hikey=F2
hivel=127
lokey=E2
loop_end=250207
loop_mode=loop_continuous
loop_start=65939
loop_xfade=24226
lovel=0
lpc=lqS3QyVrgcS053dEvVTswyayuENQYKjDbkYRQzA1osH+EYhBE+Ybwo0biUHEhVbCRndCQlc+EkI91M7BXQsywoXHpEIz7mTCVLuSQLQglsFGgkBC7ucawtAywEFgNQvB
lpc_rms=-32.05
pitch_keycenter=E2
sample=Bassoon_accent_sustain_PP_E2.opus
tune=-4
</region>

<region>
hikey=F3
hivel=127
lokey=E3
loop_end=251608
loop_mode=loop_continuous
loop_start=66309
loop_xfade=24362
lovel=0
lpc=8dmgQ0KpRcQwtCREpfWdwxvig0M2CIrDiBxjQ3jEi8KA3pLAtqpdwWIc6sGBdfhBiz0SQd1jZEChPzrCfcPRQWHihEHpntBBKZwfwitBPcE0Nc9BAYH+wPCblcGml4ZB
lpc_rms=-25.47
pitch_keycenter=E3
sample=Bassoon_accent_sustain_PP_E3.opus
tune=-1
</region>

<region>
hikey=F4
hivel=127
lokey=E4
loop_end=262674
loop_mode=loop_continuous
loop_start=69225
loop_xfade=25433
lovel=0
lpc=vNl6Q41FBcQB86xDrU3ywvpCCEO55g/DS0m9QteJ4EHAE+DBwiEGwhD898EMTixC6hpAQQxVqEClCvbB/ssRQUayuEEbKxPCtHoRQorOD8IB5NtBz129wS/xAkKt8nbB
lpc_rms=-27.08
pitch_keycenter=E4
sample=Bassoon_accent_sustain_PP_E4.opus
</region>

<region>
hikey=G2
hivel=127
lokey=F#2
loop_end=250820
loop_mode=loop_continuous
loop_start=66101
loop_xfade=24286
lovel=0
lpc=Y5lLQ+7WA8SlJ/NDu3qXw/8smEOSc4TDmf4bQ3wshcLJ+RdC5nTtwfkz+MDCDEbBp2HqQa3f7EDuTnDB64E3wSAJIEKE4TLCEJ0EQuR7EcJXnzhCOOgSwrpockGYPR/A
lpc_rms=-31.05
pitch_keycenter=F#2
sample=Bassoon_accent_sustain_PP_F#2.opus
tune=-3
</region>

<region>
hikey=G3
hivel=127
lokey=F#3
loop_end=263190
loop_mode=loop_continuous
loop_start=69361
loop_xfade=25483
lovel=0
lpc=kzOAQwGlIcRFMANEWTRuwx+IjUPlB5PDCKciQ/rEE8Lmv9NAztSawSE37sG+gYpBnJZHwAuIj0JlUTHCVxtZwmeiuELgJYzCce0RQkHJXsKgCZVCDRHRwfyJqsGPg3RB
lpc_rms=-27.65
pitch_keycenter=F#3
sample=Bassoon_accent_sustain_PP_F#3.opus
tune=-2
</region>

<region>
hikey=G4
hivel=127
lokey=F#4
loop_end=262319
loop_mode=loop_continuous
loop_start=69131
loop_xfade=25399
lovel=0
lpc=/wlIQ5TyzsMlMnxDZRXPwkUrF0PuUCzDiG8NQymQO8IQbaJBHTHpwZoYF8KRs2hCqFT3wTwzCEIKGNLBlllRwb0JQUKZMeLB8GwrQDTJE77zhA/B2eDLQGvvusGJtb5B
lpc_rms=-30.72
pitch_keycenter=F#4
sample=Bassoon_accent_sustain_PP_F#4.opus
tune=+1
</region>

<region>
hikey=A2
hivel=127
lokey=G#2
loop_end=256457
loop_mode=loop_continuous
loop_start=67587
loop_xfade=24831
lovel=0
lpc=8X3xQ6k/qcSWtLBEV1dqxNq/Q0S5ZBfEkv+pQ7PlC8MZfOVCwoAtw0EVjUGT2sRB8wKJQqpbzEGn0brCVh4eQdUVY0JSj/TBU6yiQSnHIML7iBJBiomEQXiuz8CkCS6/
lpc_rms=-26.43
pitch_keycenter=G#2
sample=Bassoon_accent_sustain_PP_G#2.opus
tune=-2
</region>

<region>
hikey=A3
hivel=127
lokey=G#3
loop_end=257133
loop_mode=loop_continuous
loop_start=67765
loop_xfade=24897
lovel=0
lpc=H48bQw/hz8O2s7dDWoccw8OvJ0OZGWLDLuIWQwdIqcH2XifBXHRQwnSWBUIi+jBBcxH1QLCDxED++cvBUy2rwOO/AEKspp3BoyBBQJk4qsEplQlCEpNbwfE+oMDeMY1A
lpc_rms=-29.98
pitch_keycenter=G#3
sample=Bassoon_accent_sustain_PP_G#3.opus
tune=-2
</region>

<region>
hikey=D5
hivel=127
lokey=G#4
loop_end=259315
loop_mode=loop_continuous
loop_start=68340
loop_xfade=25108
lovel=0
lpc=H7neQq0AlMMJGYJDZJvAwpGziELhX4nCOpy1Qbh/D0CCHbS/4twGwSKvmkDrqZ/AamnxQNa7SkHWJJa/x2cFwlgBH0IzOB7ChdQUQuLpwMGECiZA+MqlQd6SyMG3ASZB
lpc_rms=-32.00
pitch_keycenter=G#4
sample=Bassoon_accent_sustain_PP_G#4.opus
tune=-3
</region>
</group>

<group>
group_label=MF
lpc_hicc1=84
lpc_locc1=43

<region>
hikey=B1
hivel=127
lokey=A#1
loop_end=264246
loop_mode=loop_continuous
loop_start=69639
loop_xfade=25586
lovel=0
lpc=kXaXQmPHW8PoooBDQk44w2DF5EJuLnXCyTswQVs6/0EA1CTCPzgwQpRfZMJhqSRCozGJwTkSyUBmlLo/J171wPxgd0FFRMnBPgMVQvpbEML2rKdB7bocwaFZhEDm8Ia/
lpc_rms=-25.90
pitch_keycenter=A#1
sample=Bassoon_accent_sustain_MF_A#1.opus
tune=-1
</region>

<region>
hikey=B2
hivel=127
lokey=A#2
loop_end=260847
loop_mode=loop_continuous
loop_start=68744
loop_xfade=25256
lovel=0
lpc=UMY+QwPqAMTRggZErbzDw51isUPwoIrDDoEmQ32vi8I9w6DAc8kaQeazRMHdmeq/8s8lQWMoEEL/xAbCVXH2QJfFyMCpXoXB6DYiQo0MQsKMWUBC8Co3woDnHkL8xnrB
lpc_rms=-20.73
pitch_keycenter=A#2
sample=Bassoon_accent_sustain_MF_A#2.opus
tune=-1
</region>

<region>
hikey=B3
hivel=127
lokey=A#3
loop_end=256816
loop_mode=loop_continuous
loop_start=67681
loop_xfade=24866
lovel=0
lpc=un2aQ8xASsSsnkBERFvdwwWTpUOM61HDp2xSQlNYJEL+JXHC8GVXQVKziUBthWXBT7zOQJxqfEK1WqzCi5wfQjDRbkEtnR7CwzBVQi2iFcKF4qXB275CQRJUlEHm3JnA
lpc_rms=-19.42
pitch_keycenter=A#3
sample=Bassoon_accent_sustain_MF_A#3.opus
tune=-1
</region>

<region>
hikey=C#2
hivel=127
lokey=C2
loop_end=261199
loop_mode=loop_continuous
loop_start=68836
loop_xfade=25291
lovel=0
lpc=ArP3QnOSrsP9AqtDMqwmw8ba6ELlW6vCRdlTQbfiT0H+c3bBnC6fQc6njsFyPIfByDUAQsMiY0GE+pXBs+PQwcW5F0LpZq7BgVjJQLchn8CM5QxByYAzwHS/dr8X4Xa9
lpc_rms=-25.89
pitch_keycenter=C2
sample=Bassoon_accent_sustain_MF_C2.opus
tune=-2
</region>

<region>
hikey=C#3
hivel=127
lokey=C3
loop_end=263990
loop_mode=loop_continuous
loop_start=69572
loop_xfade=25561
lovel=0
lpc=02QCQ+8fvsNtTNdDimGUw47SRUPVE+TC9bpHQgNrgMEq6k3APZOWQTrY2sEA1wXBN82NQeJ8LUEFO1PBSUPOwLtWCELxWOLBI8K1QQEYF8LTN8dBqxwMwuWMVkI/Eb7B
lpc_rms=-24.37
pitch_keycenter=C3
sample=Bassoon_accent_sustain_MF_C3.opus
tune=-1
</region>

<region>
hikey=C#4
hivel=127
lokey=C4
loop_end=255156
loop_mode=loop_continuous
loop_start=67244
loop_xfade=24705
lovel=0
lpc=62dXQ8ZjD8SEugBEQf01w+oLOkI/hdbBo+NFQU7Irb8TpoRBzJjSwGHFBMIxRcXAALT3Qfb2w8Bo7Z2+ROOIP1rMmMA+fbFBRis2wZXGnUCJ1IzBYXcvwTvgw0FdgLXA
lpc_rms=-21.51
sample=Bassoon_accent_sustain_MF_C4.opus
tune=+1
</region>

<region>
hikey=D#2
hivel=127
lokey=D2
loop_end=262957
loop_mode=loop_continuous
loop_start=69300
loop_xfade=25461
lovel=0
lpc=3L81Q2wy28MjQLJDfjxGw61rK0NR6r3CNwanQq1gkcLsiYFBYbUEwbF8UcGriC1BrAD0vBOCWUFa7htAx6Wxwf8mq0EIUyfB2mkMQICxV79swUhB+NugwaxozUAZJM4/
lpc_rms=-22.59
pitch_keycenter=D2
sample=Bassoon_accent_sustain_MF_D2.opus
tune=-2
</region>

<region>
hikey=D#3
hivel=127
lokey=D3
loop_end=266911
loop_mode=loop_continuous
loop_start=70342
loop_xfade=25844
lovel=0
lpc=yP5tQ9jUJcT6yytE4Pi7w3PCOEPxzwzDEgMMQ2Ryq8IEkUFCucU3wppHZkGTyUTBJfqNQaBOjMEkZ4vAMqcPQb2pE0LfSzzB4i7hwQt6oEEQxYLBP/UiQd9KKMFRmAhB
lpc_rms=-20.17
pitch_keycenter=D3
sample=Bassoon_accent_sustain_MF_D3.opus
</region>

<region>
hikey=D#4
hivel=127
lokey=D4
loop_end=264917
loop_mode=loop_continuous
loop_start=69816
loop_xfade=25651
lovel=0
lpc=7QIWQ4Hl5cMMpwdEqOGowxaGJ0PB0cHCunU7QjGAIUDMMQTCz3IjQuU6VMIBGzxCH3zvwVVSB0LVZwTCQQQmQTXB5EBXNZdACayRwQRT2EGOut7BPj/0v8FcqEFKbxHB
lpc_rms=-19.71
pitch_keycenter=D4
sample=Bassoon_accent_sustain_MF_D4.opus
tune=-1
</region>

<region>
hikey=F2
hivel=127
lokey=E2
loop_end=265167
loop_mode=loop_continuous
loop_start=69882
loop_xfade=25675
lovel=0
lpc=xFz7QvZfm8NabXtDeesDw5ApDEM/l6nC2R4FQs/XOcL6ZhBC66vPwc2Ud0EWCUHAQBYCwQoItUGJhYTBT3kPQHEuU0Bur5w9id00wOz16D/KowzAfXfvvOy92j6vKSE/
lpc_rms=-24.85
pitch_keycenter=E2
sample=Bassoon_accent_sustain_MF_E2.opus
tune=-2
</region>

<region>
hikey=F3
hivel=127
lokey=E3
loop_end=259874
loop_mode=loop_continuous
loop_start=68487
loop_xfade=25162
lovel=0
lpc=kxghQ8Kb2sM5ltRDVfVQw/RnBkNXcynDAVwlQ+ZMj8JijSFBYbT5wVUwsUEM3qq/NWpVQfyXIsE+tifBIBlNQbEzP8GgibpBxmqSwYINu7/L0VRBQ/bkPjxsi8GAFBRB
lpc_rms=-22.43
pitch_keycenter=E3
sample=Bassoon_accent_sustain_MF_E3.opus
tune=-2
</region>

<region>
hikey=F4
hivel=127
lokey=E4
loop_end=264064
loop_mode=loop_continuous
loop_start=69591
loop_xfade=25568
lovel=0
lpc=FC0yQxB93sM2htBD5UuDw39tgEPt/oHDcwdaQxq36MIGkwFCs3sYwkeLVUEZmMdAPN7aQaPNUkDZ0XjCdmxWQuhfUMHNvcFB9QJQwtPLUEIH3wzC4WQGQYRewEDt+DM+
lpc_rms=-17.78
pitch_keycenter=E4
sample=Bassoon_accent_sustain_MF_E4.opus
tune=+1
</region>

<region>
hikey=G2
hivel=127
lokey=F#2
loop_end=266440
loop_mode=loop_continuous
loop_start=70217
loop_xfade=25798
lovel=0
lpc=P1PtQlARrMOCFMJDHfeVw/GqjkNcOmbDTkT6QkOZmsInTHBClLnbwceVncCma1I/EqJhQbpNhcFdm6JBJ9BIwTG5+r9v9/hAv/yiwGw51L/lkKZARwCowA5iREAAfsu+
lpc_rms=-23.79
pitch_keycenter=F#2
sample=Bassoon_accent_sustain_MF_F#2.opus
tune=-1
</region>

<region>
hikey=G3
hivel=127
lokey=F#3
loop_end=255903
loop_mode=loop_continuous
loop_start=67441
loop_xfade=24778
lovel=0
lpc=R34ZQyg/3sMfH+dDqACGwys7gEPErZrD6SJhQ1g7usISsh1CKqHxwXT6sj4qcBVAE5i9QZmaA8I0ECNBz0lDvwdxHkKzakHCpifQQbUI7cHOfDJCfnRowo6SOELthlrB
lpc_rms=-21.80
pitch_keycenter=F#3
sample=Bassoon_accent_sustain_MF_F#3.opus
tune=-1
</region>

<region>
hikey=G4
hivel=127
lokey=F#4
loop_end=262218
loop_mode=loop_continuous
loop_start=69105
loop_xfade=25389
lovel=0
lpc=PmPeQnDum8MPlplDkWgYw/9S20LA1gTDnpviQuwWB8IIeyjAp0aEwYSw/sDqZp9BwCUkwPq8tL/89k/AVH5pPyqOlkHF4+fAljzKwQzY0UFJdF7BdXtJQfRnXMGKNMxA
lpc_rms=-22.50
pitch_keycenter=F#4
sample=Bassoon_accent_sustain_MF_F#4.opus
tune=-2
</region>

<region>
hikey=A2
hivel=127
lokey=G#2
loop_end=261940
loop_mode=loop_continuous
loop_start=69032
loop_xfade=25362
lovel=0
lpc=OmpnQ/dIMMTm41REshscxNAO5EP9Dq3DBsJiQ5gO/MJ386NC07uXwkwRhMHVTmtCVwc1QLpRukGqbpHCuoFcQvfzAsKSxYtBSAzBQLULFsKVrVRC0H5Jwgu/LEKGXZLB
lpc_rms=-20.07
pitch_keycenter=G#2
sample=Bassoon_accent_sustain_MF_G#2.opus
tune=-1
</region>

<region>
hikey=A3
hivel=127
lokey=G#3
loop_end=258124
loop_mode=loop_continuous
loop_start=68026
loop_xfade=24993
lovel=0
lpc=0bf3QlTfrMNCmKZDEvEmw56fG0N/5yjDZquvQlngncD9dZHB0MfbwIycAkHwnKbAN3zNQeZ8sMBaOfjBUOk1QeLvH0LOif3BQJxnwXkBnMBlpCVCudW3wfkD8b9gMExA
lpc_rms=-23.11
pitch_keycenter=G#3
sample=Bassoon_accent_sustain_MF_G#3.opus
</region>

<region>
hikey=D5
hivel=127
lokey=G#4
loop_end=263270
loop_mode=loop_continuous
loop_start=69382
loop_xfade=25491
lovel=0
lpc=X2sMQwXfusOKFKpDahonw3VSD0P/srvCdJ+JwXy9VUIM0uPBXlCBv2t1QUD4TITBqzbNQZbqV0BLFfi/Sg5QwCQRvEBFCG/CBy2lQgecR8LDO9dBQObMwD2ST8Gg9BFB
lpc_rms=-20.09
pitch_keycenter=G#4
sample=Bassoon_accent_sustain_MF_G#4.opus
tune=-1
</region>
</group>

<group>
group_label=FF
lpc_hicc1=127
lpc_locc1=85

<region>
hikey=B1
hivel=127
lokey=A#1
loop_end=266999
loop_mode=loop_continuous
loop_start=70365
loop_xfade=25852
lovel=0
lpc=s9PfQXaIc8J9L2BCtiBKwlvOEkJ/LZjAXGwFwZkeFkGA7KPAbp06v2+0FUDdbGnAef5HQBcynb8O2as+q5qyvyEDDb83NO4/4nkRv2aEEkDJ5AjAJ3y8P1xtg7/lfMG9
lpc_rms=-20.55
pitch_keycenter=A#1
sample=Bassoon_accent_sustain_FF_A#1.opus
tune=-2
</region>

<region>
hikey=B2
hivel=127
lokey=A#2
loop_end=267541
loop_mode=loop_continuous
loop_start=70508
loop_xfade=25905
lovel=0
lpc=D5GsQqT8asOjdHlDhXcow1SC+UJWw7bCQFBuQrnK08EIYKXAmsVpQVVKmsGFmdI8oj7dQYnaKMAb4urBzW7CQYerbsHi0RNBGgUQQEnQacGitZ5BxFuIwVZSS0G3s6TA
lpc_rms=-14.95
pitch_keycenter=A#2
sample=Bassoon_accent_sustain_FF_A#2.opus
tune=-1
</region>

<region>
hikey=B3
hivel=127
lokey=A#3
loop_end=264441
loop_mode=loop_continuous
loop_start=69691
loop_xfade=25604
lovel=0
lpc=4EbSQp99kcMBhZ1DjyNawy2SKkPFWA7DQOrCQunwr8Fo9e/BgewMQnWQFcKwUba/GIMBQsAUjcCY+3PB/dOBQeDzDMH++jDB2xTdQU2e0MFRY7BB5E3wwTaKwkH3u7vA
lpc_rms=-13.50
pitch_keycenter=A#3
sample=Bassoon_accent_sustain_FF_A#3.opus
tune=-1
</region>

<region>
hikey=C#2
hivel=127
lokey=C2
loop_end=267261
loop_mode=loop_continuous
loop_start=70434
loop_xfade=25878
lovel=0
lpc=PwYvQjcIxsLfvJtC6ChAwlThA0JE5YJBdAzmwVRqVT9oioRAhxeXwGgaCEFLP4fATlaTvRrjtz+ZRzY/wbzFv2zFQkAWPHjAWlh0vS+xwz79zCa/y0soQKtNhz+lmwbA
lpc_rms=-20.74
pitch_keycenter=C2
sample=Bassoon_accent_sustain_FF_C2.opus
tune=-1
</region>

<region>
hikey=C#3
hivel=127
lokey=C3
loop_end=270598
loop_mode=loop_continuous
loop_start=71313
loop_xfade=26201
lovel=0
lpc=kYrVQrdalsNuaqFDuddEw8Ap7UKc+ZjCRaA7Qug0FsIUigBCl9v5wPM2y8G/ArZA8eOiQd7seEFItB/CEZyPQTh8hr8kQpnAZw97QTzyl8HOg1ZBHnmBwYkjoUHFMRPB
lpc_rms=-16.75
pitch_keycenter=C3
sample=Bassoon_accent_sustain_FF_C3.opus
</region>

<region>
hikey=C#4
hivel=127
lokey=C4
loop_end=257468
loop_mode=loop_continuous
loop_start=67853
loop_xfade=24929
lovel=0
lpc=ovIFQ5m2uMPaE69DZR/swsVMkEG9XOrB//QAQVeQokFcIEpB3MJbwnNmrkEsn4dBkkCewac+FkI7LATC2JQhP1ljEMHIl+tBQhKCvgESB8JAOxJCOEMGwulPxUGrq+nA
lpc_rms=-14.18
sample=Bassoon_accent_sustain_FF_C4.opus
</region>

<region>
hikey=D#2
hivel=127
lokey=D2
loop_end=265137
loop_mode=loop_continuous
loop_start=69874
loop_xfade=25672
lovel=0
lpc=ebHlQnOwgsPi1FBDiJkDw0oNpkJ5ENNAYTzpQQJvnMJZNRFCF030wG1+7sBki3U/95MIQaJ0kMBDVyBBgWVCwUDNhUF+ZjDBNUOVwIutHEEK6WTB9ocwQSjGR0D1P53A
lpc_rms=-18.16
pitch_keycenter=D2
sample=Bassoon_accent_sustain_FF_D2.opus
tune=-1
</region>

<region>
hikey=D#3
hivel=127
lokey=D3
loop_end=267966
loop_mode=loop_continuous
loop_start=70620
loop_xfade=25946
lovel=0
lpc=nYsNQ2RKx8MdY9tDycWKw9X8EEMC37/CI3LFQkNTiMK/nAJCY1+JwfGIJL+yORzBj9cVQYpDukEJc0bCuJfAQWay6kH1rKbBwFx3wRd0nEHRK5XA/7xhwViViEF1Pq7A
lpc_rms=-15.05
pitch_keycenter=D3
sample=Bassoon_accent_sustain_FF_D3.opus
</region>

<region>
hikey=D#4
hivel=127
lokey=D4
loop_end=264166
loop_mode=loop_continuous
loop_start=69618
loop_xfade=25578
lovel=0
lpc=RjN+QkIpMcO+SEVDJ7D6wilUgkLcmUXC1/k/QlaWqMHEs+JAc2GvwYsD30GHpdTByLp9QeNTcMA2EQi/cJfpQEmDNMFMfqdBqwX6wXgI/0EKafrBKBzEQTvrFsE9BTU/
lpc_rms=-13.61
pitch_keycenter=D4
sample=Bassoon_accent_sustain_FF_D4.opus
</region>

<region>
hikey=F2
hivel=127
lokey=E2
loop_end=270397
loop_mode=loop_continuous
loop_start=71260
loop_xfade=26181
lovel=0
lpc=Jg55QqVfE8O+0fdC4o+iwlfgfELfJ78/H/a2wYYzuMBUtDdBfQZxwYU+bUEtbf7APK8bwA50cUEw8BbByt4BwLbPvEB00mnAq3DQvwqd0EBLp0bBmSkPQVgfFUDnKWDA
lpc_rms=-19.92
pitch_keycenter=E2
sample=Bassoon_accent_sustain_FF_E2.opus
tune=-1
</region>

<region>
hikey=F3
hivel=127
lokey=E3
loop_end=268764
loop_mode=loop_continuous
loop_start=70830
loop_xfade=26023
lovel=0
lpc=uruXQuoDTcMFXVNDNZAAwzaZq0IjIqPCYAO1Qgt8isKyCNFBR3pJwLH9+sAfH4E+RyN6QelmDMHB33DAIkh5QAClDMEPL4xByxAQwdXf7sDsfyBBdLNev6Ux/b9RswI8
lpc_rms=-17.37
pitch_keycenter=E3
sample=Bassoon_accent_sustain_FF_E3.opus
</region>

<region>
hikey=F4
hivel=127
lokey=E4
loop_end=262069
loop_mode=loop_continuous
loop_start=69066
loop_xfade=25375
lovel=0
lpc=GTqOQhtuQ8PdLlJDYqkFwxBO3ELGCgnDoiUAQx+HZcLauIxBuNYGwiVcwkFn8ydArsB0wat0AEKAFFDC/G5lQu8HBMKRdUJBtAiHwbJ+nUHhzwPBqtkGwbjNeUGMms3A
lpc_rms=-15.91
pitch_keycenter=E4
sample=Bassoon_accent_sustain_FF_E4.opus
tune=+1
</region>

<region>
hikey=G2
hivel=127
lokey=F#2
loop_end=273918
loop_mode=loop_continuous
loop_start=72188
loop_xfade=26522
lovel=0
lpc=Qc2XQuv8TsPIv2hDbeREw67YPEOTxh/DbdvhQqYkncLEPXRCg4Qcwg6xEEEJtTBAPuAQwSV8bEE/Nk3BJjxgQTz1h8HGBbxBhqrHwXwzi0EIEEzBuuT+QOw+27+/ys29
lpc_rms=-18.72
pitch_keycenter=F#2
sample=Bassoon_accent_sustain_FF_F#2.opus
</region>

<region>
hikey=G3
hivel=127
lokey=F#3
loop_end=272954
loop_mode=loop_continuous
loop_start=71934
loop_xfade=26429
lovel=0
lpc=ZzvdQtihjMNoOItD43tVw4lFYEO3ZlrDfJksQ7WozcIGDYBCZEJqwiLFJUK87jzCBqpVQr0zzcEJHDhBHB+QwauWDUHpEy1BYApGware/z8yvxRBqkcjwBRHeMFvzilB
lpc_rms=-14.15
pitch_keycenter=F#3
sample=Bassoon_accent_sustain_FF_F#3.opus
tune=-1
</region>

<region>
hikey=G4
hivel=127
lokey=F#4
loop_end=266629
loop_mode=loop_continuous
loop_start=70267
loop_xfade=25816
lovel=0
lpc=B9zKQpGIjsMs8YpDOLgCw39B1kKWnQ3DLN/QQjtLsME0y9jAg6WuwWjtw0A5i7xBWNuLwfQoy0HCNt/BdZpRwfp8J0KdVZbB49TzwDzdOcB4aJ1BDaPCwHBZPsENK+VA
lpc_rms=-17.43
pitch_keycenter=F#4
sample=Bassoon_accent_sustain_FF_F#4.opus
tune=-1
</region>

<region>
hikey=A2
hivel=127
lokey=G#2
loop_end=269190
loop_mode=loop_continuous
loop_start=70942
loop_xfade=26064
lovel=0
lpc=mSnVQkABlcPaxLBDOZGRwxwnbEMtZz7DVJMVQ5pt2cJzVrdCOGeewrz1CEKws6/AiyGLP0OtjUHE8/nBehSQQcTENsDk0DjACmgBQbR+x74R0BzBxfQpP5BfPEF3ZdbA
lpc_rms=-15.94
pitch_keycenter=G#2
sample=Bassoon_accent_sustain_FF_G#2.opus
tune=-1
</region>

<region>
hikey=A3
hivel=127
lokey=G#3
loop_end=268518
loop_mode=loop_continuous
loop_start=70765
loop_xfade=25999
lovel=0
lpc=08mSQpEGUMNiAWBDVHIVw3sbB0OcqBbD7nQGQ5zsn8I4VzRCB8o3wpmNr0HXLDLBqiC9Qd0CSsAd977Bc7OyQfYEpMCpUk1BZg/qwcjE5z/byetB38bPwSytaEFojqjA
lpc_rms=-17.49
pitch_keycenter=G#3
sample=Bassoon_accent_sustain_FF_G#3.opus
</region>

<region>
hikey=D5
hivel=127
lokey=G#4
loop_end=262113
loop_mode=loop_continuous
loop_start=69077
loop_xfade=25379
lovel=0
lpc=Ql4PQ7LXwcM49bNDNQwuw7qGGkMityHDLYjaQmiC68GFkR7C+CkYP9qkHUGhtDhCZbIYwqmyjUJNj8XCy+WyQYNK5EATQmZBvVvnwNwR3MAP1JpBB7t6waNAv789jJNA
lpc_rms=-11.97
pitch_keycenter=G#4
sample=Bassoon_accent_sustain_FF_G#4.opus
tune=+2
</region>
</group>